# xmcd CD database file
#
# Track frame offsets:
#	150
#	15875
#	28767
#
# Disc length: 563 seconds
#
# Revision: 2
# Processed by: cddbd v1.5.2PL0 Copyright (c) Steve Scherf et al.
# Submitted via: CDex 1.51
#
DISCID=14023103
DTITLE=Pearl Jam - Wishlist (Single CD)
DYEAR=1998
DGENRE=Rock
TTITLE0=Wishlist
TTITLE1=U
TTITLE2=Brain Of J (Live In Melbourne Park, Australia, 03-05-1998)
EXTD=YEAR: 1998
EXTT0=
EXTT1=
EXTT2=
PLAYORDER=
